<?xml version="1.0" encoding="UTF-8" standalone="no"?>
<svg
   xmlns:dc="http://purl.org/dc/elements/1.1/"
   xmlns:cc="http://creativecommons.org/ns#"
   xmlns:rdf="http://www.w3.org/1999/02/22-rdf-syntax-ns#"
   xmlns:svg="http://www.w3.org/2000/svg"
   xmlns="http://www.w3.org/2000/svg"
   xmlns:sodipodi="http://sodipodi.sourceforge.net/DTD/sodipodi-0.dtd"
   xmlns:inkscape="http://www.inkscape.org/namespaces/inkscape"
   version="1.0"
   width="920.000000pt"
   height="920.000000pt"
   viewBox="0 0 920.000000 920.000000"
   preserveAspectRatio="xMidYMid meet"
   id="svg52"
   sodipodi:docname="thumbsUP_active.svg"
   inkscape:version="0.92.4 (5da689c313, 2019-01-14)">
  <metadata
     id="metadata58">
    <rdf:RDF>
      <cc:Work
         rdf:about="">
        <dc:format>image/svg+xml</dc:format>
        <dc:type
           rdf:resource="http://purl.org/dc/dcmitype/StillImage" />
        <dc:title></dc:title>
      </cc:Work>
    </rdf:RDF>
  </metadata>
  <defs
     id="defs56" />
  <sodipodi:namedview
     pagecolor="#ffffff"
     bordercolor="#666666"
     borderopacity="1"
     objecttolerance="10"
     gridtolerance="10"
     guidetolerance="10"
     inkscape:pageopacity="0"
     inkscape:pageshadow="2"
     inkscape:window-width="700"
     inkscape:window-height="444"
     id="namedview54"
     showgrid="false"
     inkscape:zoom="0.1923913"
     inkscape:cx="613.33333"
     inkscape:cy="613.33333"
     inkscape:window-x="863"
     inkscape:window-y="70"
     inkscape:window-maximized="0"
     inkscape:current-layer="svg52" />
  <g
     transform="translate(0.000000,920.000000) scale(0.100000,-0.100000)"
     fill="#000000"
     stroke="none"
     id="g50"
     style="fill:#20558a;opacity:1;fill-opacity:1">
    <path
       d="M5388 9001 c-62 -24 -107 -58 -118 -87 -26 -67 -69 -393 -95 -709 -18 -226 -25 -270 -71 -438 -57 -208 -116 -352 -226 -552 -78 -140 -147 -233 -240 -320 -233 -219 -512 -520 -658 -711 -34 -43 -66 -86 -73 -94 -28 -35 -125 -179 -152 -225 -15 -27 -31 -52 -35 -55 -8 -6 -130 -257 -130 -267 0 -27 -229 -482 -307 -610 -204 -333 -436 -628 -620 -787 l-81 -71 -1 -1679 c-1 -1598 0 -1678 17 -1664 112 101 638 6 1343 -243 279 -98 376 -130 560 -184 166 -48 231 -65 464 -120 102 -24 355 -65 445 -73 110 -9 1822 -9 1876 0 97 17 216 80 302 162 82 77 174 214 304 451 46 84 72 145 87 205 58 239 55 414 -10 542 l-19 38 61 30 c156 79 306 223 369 355 49 100 65 187 64 340 -1 129 -20 210 -85 353 l-29 64 47 76 c86 142 151 302 203 500 27 101 55 276 54 338 -1 69 -39 146 -113 226 -58 62 -59 64 -44 91 52 101 149 395 167 507 34 207 27 315 -31 470 -95 257 -213 422 -348 489 l-60 30 -155 -5 c-85 -3 -189 -7 -230 -10 -41 -3 -82 -5 -90 -5 -8 0 -87 -5 -175 -10 -88 -5 -198 -12 -245 -14 -47 -3 -213 -14 -370 -25 -293 -20 -423 -28 -545 -35 -112 -6 -213 -16 -322 -31 -150 -20 -238 2 -395 100 -70 43 -77 50 -83 87 -14 80 11 190 73 323 43 91 147 272 169 294 7 8 34 57 59 110 25 54 67 142 94 197 137 289 256 576 345 835 89 256 98 302 99 480 1 201 -2 243 -29 375 -26 124 -66 246 -120 359 -109 230 -343 483 -516 560 -129 56 -290 72 -381 37z"
       id="path46"
       style="fill:#20558a;fill-opacity:1" />
    <path
       d="M845 4320 c-71 -4 -195 -11 -275 -15 -80 -4 -174 -10 -210 -13 l-65 -7 -12 -105 c-56 -471 -59 -1136 -8 -1615 8 -77 17 -165 20 -195 6 -79 44 -344 60 -420 7 -36 16 -83 19 -105 18 -115 131 -594 160 -680 8 -22 24 -74 36 -115 23 -76 122 -364 141 -410 6 -14 25 -58 43 -99 l31 -74 758 -1 757 -1 0 1907 0 1906 -27 6 c-40 7 -116 16 -203 22 -41 3 -97 7 -125 9 -111 8 -979 13 -1100 5z m854 -2880 c133 -61 205 -203 167 -334 -31 -107 -116 -186 -222 -207 -130 -26 -261 43 -315 164 -82 185 57 397 261 397 43 0 79 -7 109 -20z"
       id="path48"
       style="fill:#20558a;fill-opacity:1" />
  </g>
</svg>
