<svg id="svg" version="1.1" xmlns="http://www.w3.org/2000/svg" xmlns:xlink="http://www.w3.org/1999/xlink" width="400" height="400" viewBox="0, 0, 400,400"><g id="svgg"><path id="path0" d="M191.400 42.043 C 149.872 45.905,115.187 75.594,105.008 115.992 C 94.879 156.187,111.308 198.433,146.068 221.577 C 150.621 224.608,150.719 224.704,150.005 225.443 C 149.243 226.231,147.397 230.334,145.795 234.800 C 145.282 236.230,144.205 239.110,143.402 241.200 C 142.599 243.290,141.440 246.350,140.825 248.000 C 139.505 251.545,137.950 255.529,136.376 259.400 C 135.750 260.940,134.884 263.190,134.452 264.400 C 132.208 270.686,130.359 275.539,127.976 281.400 C 127.350 282.940,126.484 285.190,126.052 286.400 C 124.231 291.503,121.669 298.216,119.566 303.400 C 118.941 304.940,118.078 307.190,117.648 308.400 C 115.729 313.805,113.141 320.552,110.948 325.869 C 110.207 327.668,109.600 329.294,109.600 329.483 C 109.600 329.673,108.998 331.352,108.261 333.214 C 107.525 335.076,106.242 338.400,105.409 340.600 C 104.577 342.800,103.386 345.860,102.763 347.400 C 102.139 348.940,101.275 351.190,100.842 352.400 C 100.409 353.610,99.312 356.580,98.403 359.000 C 96.107 365.116,96.774 368.219,100.556 369.027 C 101.240 369.173,101.980 369.430,102.200 369.599 C 103.255 370.407,113.574 375.757,118.200 377.894 C 174.130 403.729,239.832 401.768,293.400 372.667 C 296.260 371.113,299.249 369.512,300.043 369.107 C 303.529 367.333,304.292 364.940,302.702 360.775 C 302.162 359.359,301.225 356.940,300.620 355.400 C 299.333 352.122,297.458 347.115,296.352 344.000 C 295.922 342.790,295.059 340.540,294.434 339.000 C 292.316 333.778,289.723 326.981,287.950 322.000 C 287.519 320.790,286.566 318.360,285.832 316.600 C 285.098 314.840,283.817 311.600,282.986 309.400 C 279.422 299.967,278.695 298.063,277.721 295.600 C 277.155 294.170,276.189 291.650,275.575 290.000 C 274.960 288.350,273.801 285.290,272.998 283.200 C 272.195 281.110,271.119 278.230,270.607 276.800 C 270.095 275.370,269.275 273.300,268.786 272.200 C 267.948 270.318,266.545 266.635,264.748 261.600 C 264.316 260.390,263.450 258.140,262.824 256.600 C 260.441 250.739,258.592 245.886,256.348 239.600 C 255.916 238.390,255.048 236.140,254.420 234.600 C 253.791 233.060,252.783 230.498,252.178 228.907 C 251.573 227.316,250.753 225.720,250.356 225.360 C 249.672 224.741,249.888 224.536,254.316 221.585 C 295.619 194.070,309.990 141.091,288.219 96.600 C 270.426 60.237,231.517 38.312,191.400 42.043 " stroke="none" fill="#f4f4fc" fill-rule="evenodd"></path><path id="path1" d="M186.400 4.055 C 83.743 11.700,4.403 97.032,4.403 199.800 C 4.403 265.262,37.048 326.423,91.406 362.804 C 97.652 366.984,97.174 366.803,96.938 364.900 C 96.800 363.794,97.185 362.246,98.403 359.000 C 99.312 356.580,100.409 353.610,100.842 352.400 C 101.275 351.190,102.139 348.940,102.763 347.400 C 103.386 345.860,104.577 342.800,105.409 340.600 C 106.242 338.400,107.525 335.076,108.261 333.214 C 108.998 331.352,109.600 329.673,109.600 329.483 C 109.600 329.294,110.207 327.668,110.948 325.869 C 113.141 320.552,115.729 313.805,117.648 308.400 C 118.078 307.190,118.941 304.940,119.566 303.400 C 121.669 298.216,124.231 291.503,126.052 286.400 C 126.484 285.190,127.350 282.940,127.976 281.400 C 130.359 275.539,132.208 270.686,134.452 264.400 C 134.884 263.190,135.750 260.940,136.376 259.400 C 137.950 255.529,139.505 251.545,140.825 248.000 C 141.440 246.350,142.599 243.290,143.402 241.200 C 144.205 239.110,145.282 236.230,145.795 234.800 C 147.397 230.334,149.243 226.231,150.005 225.443 C 150.719 224.704,150.621 224.608,146.068 221.577 C 94.116 186.986,86.969 113.893,131.258 70.110 C 169.615 32.191,230.785 32.191,269.142 70.110 C 313.437 113.900,306.284 186.986,254.316 221.587 C 249.888 224.536,249.672 224.741,250.356 225.360 C 250.753 225.720,251.573 227.316,252.178 228.907 C 252.783 230.498,253.791 233.060,254.420 234.600 C 255.048 236.140,255.916 238.390,256.348 239.600 C 258.592 245.886,260.441 250.739,262.824 256.600 C 263.450 258.140,264.316 260.390,264.748 261.600 C 266.545 266.635,267.948 270.318,268.786 272.200 C 269.275 273.300,270.095 275.370,270.607 276.800 C 271.119 278.230,272.195 281.110,272.998 283.200 C 273.801 285.290,274.960 288.350,275.575 290.000 C 276.189 291.650,277.155 294.170,277.721 295.600 C 278.695 298.063,279.422 299.967,282.986 309.400 C 283.817 311.600,285.098 314.840,285.832 316.600 C 286.566 318.360,287.519 320.790,287.950 322.000 C 289.723 326.981,292.316 333.778,294.434 339.000 C 295.059 340.540,295.922 342.790,296.352 344.000 C 297.458 347.115,299.333 352.122,300.620 355.400 C 303.938 363.850,304.075 364.480,303.029 366.485 L 302.463 367.570 304.131 366.528 C 376.923 321.039,411.743 234.547,390.737 151.400 C 367.554 59.637,280.732 -2.969,186.400 4.055 " stroke="none" fill="#949cc4" fill-rule="evenodd"></path><path id="path2" d="" stroke="none" fill="#e0f8e0" fill-rule="evenodd"></path><path id="path3" d="" stroke="none" fill="#accce0" fill-rule="evenodd"></path><path id="path4" d="" stroke="none" fill="#ac9ce4" fill-rule="evenodd"></path></g></svg>