<!DOCTYPE svg PUBLIC "-//W3C//DTD SVG 20010904//EN" "http://www.w3.org/TR/2001/REC-SVG-20010904/DTD/svg10.dtd">
<svg version="1.0" xmlns="http://www.w3.org/2000/svg" width="1000px" height="250px" viewBox="0 0 10000 2500" preserveAspectRatio="xMidYMid meet">
<g id="layer101" fill="#050303" stroke="none">
<path d="M1670 1897 c-162 -55 -266 -70 -475 -71 -200 0 -287 12 -399 56 -27 10 -54 17 -61 14 -6 -2 -19 -26 -29 -53 -9 -26 -21 -55 -26 -64 -6 -12 -142 -341 -167 -406 -3 -8 3 -13 14 -13 10 0 50 -18 88 -41 99 -58 278 -144 355 -169 227 -77 430 -53 750 88 113 50 256 125 279 147 15 15 23 -6 -167 427 -26 58 -54 108 -62 110 -8 2 -53 -9 -100 -25z"/>
<path d="M2550 1425 c0 -21 -5 -25 -30 -25 l-30 0 0 -275 0 -275 84 0 c83 0 84 0 96 30 7 17 18 30 25 30 7 0 29 40 49 90 21 49 41 92 45 94 4 3 30 -50 58 -117 l51 -122 87 -3 87 -3 -4 28 c-3 25 0 28 25 25 l27 -3 0 275 0 276 -70 0 c-68 0 -70 -1 -70 -25 0 -21 -5 -25 -30 -25 l-30 0 -1 -92 -1 -93 -25 53 -25 53 -46 -3 c-40 -3 -47 -6 -50 -25 -2 -13 -12 -23 -24 -25 -15 -2 -27 -19 -42 -58 l-21 -55 -3 148 -3 147 -64 0 c-63 0 -65 -1 -65 -25z"/>
<path d="M3220 1444 c0 -3 5 -14 10 -25 10 -17 7 -19 -25 -19 -19 0 -35 -5 -35 -11 0 -5 36 -106 79 -222 43 -117 87 -236 97 -264 l19 -53 81 0 82 0 11 30 c5 17 16 30 24 30 8 0 20 15 27 33 6 17 20 51 31 75 10 23 19 51 19 60 0 10 4 22 9 27 4 6 30 71 56 145 27 74 55 144 62 155 26 39 17 45 -61 45 -58 0 -75 -3 -80 -16 -3 -9 -4 -20 0 -25 3 -5 -6 -9 -19 -9 -19 0 -28 -8 -36 -30 -10 -30 -10 -30 -89 -30 -89 0 -93 3 -113 68 l-12 42 -69 0 c-37 0 -68 -3 -68 -6z m276 -286 c-10 -50 -21 -52 -39 -8 l-15 40 30 0 c29 0 30 -2 24 -32z"/>
<path d="M3850 1425 c0 -21 -5 -25 -30 -25 -27 0 -30 -3 -30 -34 0 -57 8 -66 56 -66 l44 0 0 -150 c0 -142 -1 -150 -19 -150 -14 0 -21 -8 -23 -27 -2 -20 -9 -28 -23 -28 -27 0 -35 -13 -35 -57 l0 -38 170 0 170 0 0 25 c0 21 5 25 30 25 29 0 30 1 30 50 l0 50 -50 0 -50 0 0 150 c0 143 1 150 20 150 15 0 20 7 20 28 0 24 4 28 28 27 25 0 27 2 27 45 l0 45 -167 3 -168 2 0 -25z"/>
<path d="M4300 1425 c0 -20 -5 -25 -25 -25 l-25 0 0 -275 0 -275 70 0 70 0 0 28 c0 26 3 28 31 24 l30 -4 -3 201 -3 201 103 0 102 0 0 30 c0 27 2 30 25 24 24 -6 25 -5 25 45 l0 51 -200 0 -200 0 0 -25z"/>
<path d="M5064 1425 c6 -23 4 -25 -24 -25 l-30 0 0 -275 0 -275 84 0 84 0 11 30 c5 17 16 30 24 30 7 0 28 36 47 83 41 101 55 119 64 83 3 -13 19 -53 35 -88 16 -35 36 -80 45 -100 l15 -38 86 0 86 0 -3 28 c-3 24 0 27 25 24 l27 -3 0 275 0 276 -74 0 c-73 0 -73 0 -68 -25 4 -22 1 -25 -26 -25 l-31 0 -3 -92 -3 -93 -24 53 -24 53 -46 -3 c-39 -3 -47 -7 -49 -25 -2 -13 -12 -23 -25 -25 -15 -2 -27 -19 -43 -58 -13 -30 -23 -50 -24 -45 0 6 -2 71 -3 145 l-2 135 -69 3 -68 3 6 -26z"/>
<path d="M5740 1437 c0 -7 5 -18 12 -25 9 -9 4 -12 -25 -12 -23 0 -37 -5 -37 -12 0 -13 16 -58 131 -365 l64 -173 81 0 82 0 11 31 c7 19 16 29 24 26 9 -3 20 17 35 62 27 77 59 163 77 206 7 17 27 68 43 115 17 47 37 99 46 115 9 17 16 33 16 38 0 4 -34 7 -75 7 -71 0 -75 -1 -81 -25 -4 -16 -13 -25 -26 -25 -12 0 -23 -11 -29 -30 l-11 -30 -83 0 -82 0 -19 53 -19 52 -68 3 c-51 2 -67 0 -67 -11z m280 -259 c-1 -7 -7 -26 -14 -43 l-13 -30 -17 39 c-20 49 -21 46 14 46 18 0 30 -5 30 -12z"/>
<path d="M6370 1425 c0 -21 -5 -25 -30 -25 -29 0 -30 -1 -30 -50 l0 -50 50 0 50 0 0 -150 c0 -143 -1 -150 -20 -150 -15 0 -20 -7 -20 -25 0 -20 -6 -27 -30 -31 -28 -6 -30 -10 -30 -50 l0 -44 170 0 170 0 0 28 c0 26 3 28 31 24 l30 -4 -3 48 -3 49 -47 3 -48 3 0 150 c0 142 1 149 20 149 15 0 20 7 20 29 0 26 3 30 28 28 26 -2 27 0 27 43 l0 45 -167 3 -168 2 0 -25z"/>
<path d="M6820 1425 c0 -21 -5 -25 -30 -25 l-30 0 0 -275 0 -275 75 0 75 0 0 29 c0 25 3 28 25 23 l25 -4 0 201 0 201 106 0 105 0 -3 28 c-3 24 0 27 25 24 26 -3 27 -2 27 47 l0 51 -200 0 -200 0 0 -25z"/>
<path d="M7582 1425 c5 -22 2 -25 -23 -25 l-29 0 0 -275 0 -275 83 0 83 0 11 31 c9 22 17 30 28 26 8 -4 15 -1 15 6 0 17 73 187 80 187 4 0 11 -15 17 -32 5 -18 27 -75 49 -125 l39 -93 82 0 82 0 3 28 c3 23 7 27 31 24 l27 -3 -2 273 -3 273 -74 3 -74 3 5 -26 c5 -22 2 -25 -23 -25 l-29 0 0 -90 c0 -49 -3 -90 -8 -90 -4 0 -15 23 -25 51 l-18 50 -47 -3 c-40 -3 -47 -6 -50 -25 -2 -16 -10 -23 -26 -23 -19 0 -26 -10 -41 -55 -11 -30 -21 -53 -23 -51 -2 3 -4 67 -5 143 l-2 138 -69 3 -69 3 5 -26z"/>
<path d="M8264 1425 c6 -23 4 -25 -30 -25 -30 0 -35 -3 -29 -17 4 -10 50 -134 102 -275 l96 -258 81 0 c81 0 82 0 93 30 6 17 17 30 25 30 8 0 29 42 52 108 45 125 82 225 101 267 7 17 18 48 25 70 7 22 16 44 21 50 5 5 9 17 9 27 0 17 -8 19 -72 16 -67 -3 -73 -5 -76 -25 -2 -17 -10 -23 -27 -23 -18 0 -25 -7 -30 -30 l-7 -31 -86 3 -85 3 -17 50 -17 50 -68 3 -67 3 6 -26z m276 -244 c0 -18 -22 -71 -30 -71 -4 0 -11 11 -14 24 -3 13 -9 31 -12 40 -5 13 1 16 25 16 17 0 31 -4 31 -9z"/>
<path d="M8882 1425 c5 -22 2 -25 -23 -25 -28 0 -29 -2 -29 -50 l0 -50 50 0 50 0 0 -150 0 -150 -26 0 c-22 0 -25 -4 -22 -27 3 -25 0 -28 -24 -28 -27 1 -28 -1 -28 -47 l0 -48 170 0 170 0 0 29 c0 25 3 28 25 23 24 -4 25 -2 25 47 l0 51 -45 0 -45 0 0 134 c0 74 -3 141 -6 150 -5 12 0 16 20 16 22 0 26 4 26 30 0 27 2 30 25 24 24 -6 25 -5 25 45 l0 51 -171 0 -171 0 4 -25z"/>
<path d="M9340 1425 c0 -21 -5 -25 -30 -25 l-30 0 0 -275 0 -275 76 0 75 0 -3 28 c-3 24 0 27 25 24 l27 -3 0 200 0 201 100 0 100 0 0 30 c0 28 2 29 31 23 l30 -6 -3 49 -3 49 -197 3 -198 2 0 -25z"/>
<path d="M1995 1219 c-22 -6 -71 -17 -110 -25 -169 -37 -277 -89 -359 -173 -85 -86 -154 -196 -221 -353 -33 -78 -55 -109 -55 -78 0 21 -90 198 -137 270 -109 166 -220 238 -450 291 -70 16 -140 33 -155 38 -29 9 -48 -2 -48 -28 -1 -14 -95 -299 -115 -343 -5 -13 -2 -20 11 -24 53 -16 145 -64 196 -102 127 -93 289 -270 329 -361 8 -17 18 -32 24 -35 6 -2 75 28 155 66 80 38 164 78 187 89 23 10 43 23 45 28 2 7 66 -21 302 -135 40 -19 45 -18 59 14 68 155 332 404 488 459 27 10 49 22 49 28 0 5 -28 94 -62 197 -46 137 -67 188 -78 187 -8 -1 -33 -5 -55 -10z"/>
</g>
<g id="layer102" fill="#fe0000" stroke="none">
<path d="M2988 1402 l-68 -3 -2 -176 -3 -177 -44 110 c-24 60 -48 113 -52 118 -12 14 -90 -4 -96 -22 -5 -15 -22 -53 -80 -182 -9 -20 -12 12 -12 153 l-1 177 -70 0 -70 0 0 -275 0 -275 83 0 c96 0 78 -19 157 163 35 78 50 104 58 95 5 -7 32 -67 60 -133 l50 -120 85 -3 86 -3 1 275 c0 151 -3 276 -7 278 -5 2 -38 2 -75 0z"/>
<path d="M3233 1402 c-35 -2 -63 -8 -63 -13 0 -6 36 -106 79 -222 43 -117 87 -236 97 -264 l19 -53 80 0 81 0 23 53 c13 28 43 108 68 177 24 69 50 139 58 155 7 17 25 60 39 98 l24 67 -77 0 -77 0 -22 -50 -22 -50 -99 0 -99 0 -17 50 c-9 27 -20 51 -23 52 -4 2 -35 2 -69 0z m267 -225 c0 -26 -58 -172 -63 -157 -3 8 -17 48 -31 88 -14 40 -26 75 -26 78 0 2 27 4 60 4 43 0 60 -4 60 -13z"/>
<path d="M3958 1402 l-168 -2 0 -34 c0 -57 8 -66 56 -66 l44 0 0 -175 0 -175 -25 -2 c-14 -1 -33 -2 -42 -2 -25 -1 -33 -15 -33 -58 l0 -38 169 0 168 0 7 38 c10 62 10 62 -44 62 l-50 0 0 175 0 175 44 0 43 0 7 47 c3 26 3 49 -1 52 -5 3 -83 5 -175 3z"/>
<path d="M4448 1403 l-198 -3 0 -275 0 -275 70 0 70 0 2 223 3 222 128 3 127 3 0 54 c0 30 -1 54 -2 53 -2 -2 -92 -4 -200 -5z"/>
<path d="M5073 1402 l-63 -3 0 -274 0 -275 83 0 83 0 33 72 c18 40 45 101 59 135 26 65 43 71 56 18 3 -13 19 -52 35 -87 16 -35 36 -80 45 -100 l15 -38 85 0 84 0 2 273 c0 150 -1 275 -4 277 -2 3 -36 4 -75 2 l-71 -4 0 -175 c0 -97 -3 -174 -6 -170 -4 3 -26 54 -50 113 -24 59 -46 109 -48 112 -3 2 -23 1 -46 -3 -36 -6 -44 -12 -57 -44 -15 -35 -47 -110 -70 -161 -9 -20 -12 12 -12 152 -1 97 -4 178 -8 180 -5 2 -36 2 -70 0z"/>
<path d="M5753 1402 c-41 -2 -63 -7 -63 -15 0 -12 17 -59 131 -364 l64 -173 81 0 81 0 17 43 c9 23 16 48 16 55 0 7 4 12 9 12 5 0 11 10 14 23 4 20 89 262 104 297 3 8 7 17 8 20 1 3 9 22 18 42 10 21 17 42 17 48 0 6 -30 10 -75 10 l-74 0 -22 -50 -21 -50 -98 0 c-94 0 -97 1 -108 25 -7 14 -12 32 -12 39 0 30 -25 41 -87 38z m267 -219 c0 -14 -55 -163 -61 -163 -3 0 -16 33 -28 73 -13 39 -26 78 -28 85 -4 9 11 12 56 12 34 0 61 -3 61 -7z"/>
<path d="M6478 1403 l-168 -3 0 -50 0 -50 50 0 50 0 -2 -172 -3 -173 -47 -8 -48 -9 0 -44 0 -44 170 0 170 0 0 50 0 50 -45 0 -45 0 0 175 0 175 45 0 45 0 0 55 c0 30 -1 54 -2 53 -2 -1 -78 -4 -170 -5z"/>
<path d="M7593 1402 l-63 -3 0 -274 0 -275 83 0 82 1 17 37 c9 20 36 81 58 134 45 103 54 108 77 42 6 -17 28 -72 49 -122 l39 -92 81 0 81 0 7 38 c6 41 8 506 2 513 -2 2 -36 3 -75 1 l-71 -4 0 -167 c0 -92 -3 -171 -7 -174 -3 -4 -24 39 -46 96 -22 56 -45 108 -52 115 -8 9 -25 11 -52 6 -35 -5 -41 -11 -53 -43 -7 -20 -22 -58 -35 -86 -12 -27 -27 -61 -33 -75 -8 -19 -11 15 -11 152 -1 97 -4 178 -8 180 -5 2 -36 2 -70 0z"/>
<path d="M8267 1402 c-60 -3 -68 -5 -62 -20 4 -9 50 -133 102 -274 l96 -258 81 0 81 0 24 63 c13 34 30 76 37 92 7 17 40 107 75 200 34 94 64 176 66 183 4 9 -15 12 -74 12 l-78 0 -18 -50 -18 -51 -101 3 -102 3 -16 47 c-9 26 -18 49 -21 50 -2 2 -35 2 -72 0z m273 -222 c0 -6 -11 -37 -25 -70 -14 -33 -25 -66 -25 -75 0 -8 -4 -15 -9 -15 -8 0 -61 141 -61 163 0 4 27 7 60 7 35 0 60 -4 60 -10z"/>
<path d="M8998 1403 l-168 -3 0 -50 0 -50 51 0 51 0 -3 -169 c-2 -93 -7 -172 -11 -176 -4 -4 -25 -8 -47 -8 l-41 -2 0 -47 0 -48 170 0 170 0 0 49 0 50 -47 3 -48 3 0 170 0 170 48 3 47 3 0 55 c0 29 -1 53 -2 52 -2 -1 -78 -4 -170 -5z"/>
<path d="M9478 1402 l-198 -2 0 -275 0 -275 76 0 c72 0 75 1 74 23 -1 12 -2 113 -1 225 l1 202 124 0 123 0 7 47 c3 26 3 49 -1 52 -5 3 -97 5 -205 3z"/>
<path d="M6760 1125 l0 -275 75 0 75 0 0 225 0 225 129 0 129 0 0 50 1 50 -205 0 -204 0 0 -275z"/>
</g>
<g id="layer103" fill="#5f5f5f" stroke="none">
<path d="M1975 1194 c-11 -2 -45 -9 -75 -15 -145 -28 -277 -86 -352 -157 -80 -75 -217 -299 -233 -381 -2 -13 -8 -28 -13 -35 -14 -17 -24 -66 -13 -66 5 0 17 7 25 16 9 8 16 12 16 7 0 -4 6 -1 13 7 7 8 17 16 23 17 30 5 394 229 394 242 0 3 14 22 31 41 49 55 89 117 81 125 -4 5 -1 5 6 1 11 -7 17 5 13 27 -1 5 2 6 6 4 7 -4 111 137 121 164 4 9 -7 10 -43 3z"/>
<path d="M2019 1148 c-53 -66 -131 -178 -123 -178 3 0 -4 -9 -17 -20 -13 -10 -20 -19 -14 -20 5 0 -1 -7 -13 -16 -12 -8 -20 -19 -17 -24 3 -4 -2 -13 -11 -21 -8 -7 -19 -21 -25 -31 -9 -17 -5 -17 68 -12 43 3 85 8 93 11 8 3 29 6 45 7 17 1 58 6 93 10 72 10 74 14 40 103 -12 32 -23 61 -24 66 -1 4 -3 9 -4 12 -1 3 -4 10 -5 15 -1 6 -4 12 -5 15 -1 3 -4 10 -5 15 -1 6 -3 11 -4 13 -2 1 -4 12 -7 25 -2 13 -10 35 -17 48 l-13 26 -35 -44z"/>
<path d="M441 1045 c-22 -63 -43 -125 -45 -138 -2 -12 -9 -35 -15 -50 -8 -21 -8 -29 2 -32 18 -5 116 -18 167 -21 25 -1 79 -7 120 -12 41 -5 76 -8 78 -7 1 1 -20 31 -46 66 -27 35 -49 68 -49 72 -1 5 -39 60 -86 123 l-85 115 -41 -116z"/>
<path d="M520 1152 c0 -5 7 -15 15 -22 8 -7 15 -18 15 -25 0 -8 3 -15 8 -17 4 -1 19 -22 35 -45 15 -24 32 -43 38 -43 5 0 7 -5 4 -10 -3 -6 1 -13 9 -16 9 -3 14 -10 11 -14 -3 -5 0 -12 7 -17 7 -4 31 -35 53 -68 22 -32 49 -70 59 -82 20 -23 93 -71 110 -71 5 0 12 -5 15 -10 10 -16 259 -161 265 -154 3 3 6 0 6 -6 0 -7 5 -12 11 -12 6 0 24 -9 41 -21 16 -12 31 -19 34 -16 3 3 -6 34 -21 69 -15 34 -27 69 -27 76 -1 6 -5 12 -10 12 -5 0 -7 4 -3 9 3 5 -1 16 -9 24 -8 8 -12 17 -9 21 4 3 2 6 -4 6 -5 0 -10 6 -10 14 0 24 -93 165 -151 227 -43 47 -75 70 -146 104 -116 55 -346 113 -346 87z"/>
<path d="M2018 819 c-7 -4 -25 -5 -42 -2 -21 4 -27 3 -22 -5 5 -9 -11 -12 -56 -12 -35 0 -79 -3 -99 -6 -35 -6 -38 -10 -53 -62 -8 -30 -13 -59 -10 -63 3 -5 0 -9 -6 -9 -6 0 -10 -8 -9 -17 1 -10 0 -21 -1 -25 -1 -5 -3 -11 -5 -15 -1 -5 -5 -15 -8 -23 -4 -8 -8 -26 -11 -40 -3 -14 -8 -41 -12 -60 -7 -34 -6 -33 46 30 82 101 149 167 220 218 77 56 98 69 128 82 12 5 22 11 22 14 0 7 -69 3 -82 -5z"/>
<path d="M493 757 c111 -62 266 -207 350 -327 l17 -24 0 25 c0 14 -3 29 -7 33 -4 3 -8 13 -10 21 -6 27 -11 50 -13 50 -1 0 -3 12 -5 27 -3 24 -45 180 -49 185 -4 4 -197 29 -296 38 l-45 5 58 -33z"/>
<path d="M1535 663 c-99 -58 -182 -109 -185 -113 -3 -4 -18 -14 -34 -22 l-28 -15 160 -78 c88 -43 164 -78 169 -79 6 -1 45 131 57 194 1 8 5 22 9 30 8 17 47 169 47 182 0 4 -3 8 -7 8 -5 0 -89 -48 -188 -107z"/>
<path d="M816 693 c4 -21 10 -39 14 -41 4 -2 6 -12 3 -22 -3 -11 -1 -20 5 -20 6 0 8 -9 5 -20 -3 -11 0 -20 6 -20 5 0 8 -7 5 -15 -3 -8 -2 -20 2 -27 5 -7 9 -17 11 -23 25 -111 47 -185 55 -185 5 0 44 17 86 37 42 21 80 36 85 35 4 -1 7 3 7 9 0 5 5 7 10 4 6 -3 10 -1 10 5 0 6 4 9 9 5 5 -3 17 3 27 12 10 10 18 16 18 14 1 -2 18 5 39 15 l38 20 -43 24 c-24 13 -46 28 -50 34 -5 7 -8 7 -8 1 0 -6 -3 -6 -8 1 -10 15 -262 165 -262 156 0 -4 -4 -2 -8 3 -7 10 -48 35 -57 35 -3 0 -3 -17 1 -37z"/>
</g>
<g id="layer104" fill="#fdfdfd" stroke="none">
<path d="M1517 1724 c-131 -92 -236 -168 -234 -170 4 -4 42 -11 420 -79 143 -26 260 -45 262 -43 4 5 -197 458 -204 458 -3 0 -113 -75 -244 -166z"/>
<path d="M737 1837 c-75 -181 -176 -431 -174 -433 5 -4 607 149 607 154 -1 15 -428 290 -433 279z"/>
<path d="M1565 1834 c-27 -7 -102 -21 -165 -30 -137 -19 -364 -14 -479 10 -41 9 -75 15 -76 14 -6 -6 371 -253 385 -252 15 1 375 248 385 265 4 5 5 9 3 8 -2 0 -25 -7 -53 -15z"/>
<path d="M890 1451 l-305 -77 75 -44 c116 -68 269 -137 367 -166 190 -56 406 -23 694 107 91 41 241 120 236 125 -1 1 -130 25 -287 54 -157 28 -320 58 -364 66 -43 7 -86 14 -95 13 -9 0 -153 -36 -321 -78z"/>
<path d="M1900 1176 c-130 -31 -164 -43 -242 -83 -127 -66 -240 -213 -335 -439 -45 -107 -48 -131 -15 -101 10 10 24 17 30 17 7 0 12 5 12 10 0 6 5 10 11 10 6 0 97 52 202 115 192 114 192 114 250 194 31 44 57 85 57 91 0 5 5 10 10 10 6 0 10 7 10 15 0 8 3 15 8 15 7 0 122 154 122 164 0 9 -17 6 -120 -18z"/>
<path d="M2028 1159 c-69 -94 -128 -179 -128 -185 0 -3 -6 -11 -12 -18 -7 -8 -20 -24 -28 -36 -8 -12 -27 -38 -43 -58 -15 -19 -25 -37 -23 -39 3 -3 35 0 73 7 37 6 86 12 108 14 161 13 185 18 185 37 0 11 -16 59 -35 108 -19 49 -38 107 -43 129 -5 21 -14 47 -19 57 -9 16 -13 14 -35 -16z"/>
<path d="M428 995 c-35 -105 -51 -168 -44 -171 6 -2 61 -8 121 -14 61 -6 139 -15 175 -19 36 -4 66 -7 67 -6 2 1 -21 34 -50 73 -28 39 -74 103 -102 143 -27 40 -64 92 -81 116 l-32 44 -54 -166z"/>
<path d="M520 1155 c0 -9 83 -120 92 -123 4 -2 8 -10 8 -18 0 -8 3 -14 8 -14 4 0 20 -21 37 -48 74 -119 132 -187 181 -212 57 -30 275 -158 352 -207 30 -19 56 -33 58 -30 13 13 -96 243 -164 347 -102 156 -210 227 -427 280 -122 30 -145 34 -145 25z"/>
<path d="M2010 815 c-36 -8 -90 -14 -120 -14 -30 -1 -72 -4 -92 -7 -36 -6 -38 -9 -49 -63 -7 -31 -14 -60 -15 -66 -2 -5 -5 -19 -8 -31 -2 -12 -14 -53 -25 -91 -12 -39 -21 -75 -21 -82 0 -6 33 28 73 76 40 48 97 109 126 135 57 52 182 138 199 138 6 0 14 5 17 10 8 12 -3 12 -85 -5z"/>
<path d="M489 761 c30 -17 70 -43 90 -58 65 -50 191 -175 237 -236 37 -49 44 -55 44 -35 0 13 -4 28 -9 33 -9 10 -24 67 -56 213 -9 39 -20 72 -23 72 -4 0 -36 4 -72 9 -36 5 -96 12 -135 15 -38 4 -83 9 -100 12 -24 4 -20 -1 24 -25z"/>
<path d="M1545 663 c-99 -58 -197 -116 -218 -128 l-38 -22 163 -80 c90 -44 166 -78 170 -74 4 3 18 53 32 111 14 58 36 148 50 200 14 52 24 95 23 97 -2 1 -84 -45 -182 -104z"/>
<path d="M810 721 c0 -5 5 -22 11 -38 6 -15 13 -36 15 -45 2 -10 6 -27 9 -38 7 -27 9 -37 40 -167 15 -62 30 -113 34 -113 5 0 81 35 170 78 l162 78 -43 24 c-59 32 -305 177 -350 206 -41 26 -48 28 -48 15z"/>
</g>


</svg>